<svg width="1074" height="1074" viewBox="0 0 1074 1074" fill="none" xmlns="http://www.w3.org/2000/svg">
<path d="M134.25 805.5V537C134.25 430.184 176.682 327.743 252.213 252.213C327.743 176.682 430.184 134.25 537 134.25C643.816 134.25 746.257 176.682 821.787 252.213C897.317 327.743 939.75 430.184 939.75 537V805.5" stroke="white" stroke-width="129.25" stroke-linecap="round" stroke-linejoin="round"/>
<path d="M939.75 850.25C939.75 873.987 930.321 896.752 913.536 913.536C896.752 930.321 873.987 939.75 850.25 939.75H805.5C781.763 939.75 758.998 930.321 742.214 913.536C725.429 896.752 716 873.987 716 850.25V716C716 692.263 725.429 669.499 742.214 652.714C758.998 635.93 781.763 626.5 805.5 626.5H939.75V850.25ZM134.25 850.25C134.25 873.987 143.679 896.752 160.464 913.536C177.248 930.321 200.013 939.75 223.75 939.75H268.5C292.237 939.75 315.002 930.321 331.786 913.536C348.571 896.752 358 873.987 358 850.25V716C358 692.263 348.571 669.499 331.786 652.714C315.002 635.93 292.237 626.5 268.5 626.5H134.25V850.25Z" stroke="white" stroke-width="33.25" stroke-linecap="round" stroke-linejoin="round"/>
<circle cx="428" cy="470" r="59" fill="white"/>
<circle cx="645" cy="478" r="59" fill="white"/>
<path d="M428 641C462.167 678.5 550 731 628 641" stroke="white" stroke-width="45"/>
</svg>
